<?xml version="1.0" standalone="no"?>
<!DOCTYPE svg PUBLIC "-//W3C//DTD SVG 20010904//EN"
 "http://www.w3.org/TR/2001/REC-SVG-20010904/DTD/svg10.dtd">
<svg version="1.0" xmlns="http://www.w3.org/2000/svg"
 width="360.000000pt" height="360.000000pt" viewBox="0 0 360.000000 360.000000"
 preserveAspectRatio="xMidYMid meet">
<metadata>
Created by potrace 1.14, written by Peter Selinger 2001-2017
</metadata>
<g transform="translate(0.000000,360.000000) scale(0.100000,-0.100000)"
fill="#000000" stroke="none">
<path d="M501 3585 c-110 -24 -225 -89 -311 -175 -88 -88 -138 -176 -169 -295
-20 -79 -21 -100 -20 -1315 1 -1375 -3 -1300 71 -1449 81 -163 253 -298 428
-335 102 -22 2507 -22 2600 0 232 54 422 240 480 471 19 76 20 116 19 1318 0
1177 -1 1244 -19 1310 -55 205 -199 366 -397 444 -28 11 -63 22 -77 24 -14 1
-28 6 -32 10 -4 3 -570 6 -1258 6 -1029 0 -1262 -3 -1315 -14z"/>
</g>
</svg>
